HIERARCHY
ROOT Hips
{
	OFFSET -0.179506 -22.333345 2.821913
	CHANNELS 6 Xposition Yposition Zposition Zrotation Yrotation Xrotation 
	JOINT LeftUpLeg
	{
		OFFSET 6.951974 -9.140623 -0.681533
		CHANNELS 3 Zrotation Yrotation Xrotation
		JOINT LeftLeg
		{
			OFFSET 3.427654 -37.519855 -0.449580
			CHANNELS 3 Zrotation Yrotation Xrotation
			JOINT LeftFoot
			{
				OFFSET -1.359570 -39.796059 -4.369333
				CHANNELS 3 Zrotation Yrotation Xrotation
				JOINT LeftToe
				{
					OFFSET 2.635814 -5.579078 11.928840
					CHANNELS 3 Zrotation Yrotation Xrotation
					End Site
					{
						OFFSET 0.000000 0.000000 0.000000
					}
				}
			}
		}
	}
	JOINT RightUpLeg
	{
		OFFSET -6.767048 -9.052170 -0.431982
		CHANNELS 3 Zrotation Yrotation Xrotation
		JOINT RightLeg
		{
			OFFSET -3.829005 -38.256897 -0.885003
			CHANNELS 3 Zrotation Yrotation Xrotation
			JOINT RightFoot
			{
				OFFSET 1.577377 -39.841461 -4.231180
				CHANNELS 3 Zrotation Yrotation Xrotation
				JOINT RightToe
				{
					OFFSET -2.537174 -4.814398 12.334795
					CHANNELS 3 Zrotation Yrotation Xrotation
					End Site
					{
						OFFSET 0.000000 0.000000 0.000000
					}
				}
			}
		}
	}
	JOINT Spine
	{
		OFFSET -0.253288 10.896323 -2.669631
		CHANNELS 3 Zrotation Yrotation Xrotation
		JOINT Spine1
		{
			OFFSET 0.548704 13.518043 0.109247
			CHANNELS 3 Zrotation Yrotation Xrotation
			JOINT Spine2
			{
				OFFSET 0.145701 5.292222 2.542457
				CHANNELS 3 Zrotation Yrotation Xrotation
				JOINT Neck
				{
					OFFSET -0.277840 21.387037 -4.285703
					CHANNELS 3 Zrotation Yrotation Xrotation
					JOINT Head
					{
						OFFSET 0.515184 6.496960 5.134897
						CHANNELS 3 Zrotation Yrotation Xrotation
						End Site
						{
							OFFSET 0.000000 0.000000 0.000000
						}
					}
				}
				JOINT LeftShoulder
				{
					OFFSET 7.884473 12.174932 -3.408961
					CHANNELS 3 Zrotation Yrotation Xrotation
					JOINT LeftArm
					{
						OFFSET 9.097692 3.046888 -0.886815
						CHANNELS 3 Zrotation Yrotation Xrotation
						JOINT LeftForeArm
						{
							OFFSET 25.961220 -1.277207 -2.745643
							CHANNELS 3 Zrotation Yrotation Xrotation
							JOINT LeftHand
							{
								OFFSET 24.923361 0.898606 -0.117091
								CHANNELS 3 Zrotation Yrotation Xrotation
								End Site
								{
									OFFSET 0.000000 0.000000 0.000000
								}
							}
						}
					}
				}
				JOINT RightShoulder
				{
					OFFSET -8.175920 11.883285 -3.861528
					CHANNELS 3 Zrotation Yrotation Xrotation
					JOINT RightArm
					{
						OFFSET -9.601238 3.255117 -0.914307
						CHANNELS 3 Zrotation Yrotation Xrotation
						JOINT RightForeArm
						{
							OFFSET -25.374195 -1.332924 -2.140099
							CHANNELS 3 Zrotation Yrotation Xrotation
							JOINT RightHand
							{
								OFFSET -25.529810 0.777228 -0.555919
								CHANNELS 3 Zrotation Yrotation Xrotation
								End Site
								{
									OFFSET 0.000000 0.000000 0.000000
								}
							}
						}
					}
				}
			}
		}
	}
}
MOTION
Frames: 9
Frame Time: 0.033333
204.162125 59.166348 98.051521 -90.975134 0.400419 87.775035 -1.977326 0.321775 9.186984 3.574668 -8.427945 -8.106366 2.036693 7.463783 -9.764960 nan nan nan 0.090136 -2.962354 8.733294 1.578577 0.626908 -8.173927 8.548025 -2.685132 -3.264079 nan nan nan 0.617650 1.892185 5.840290 0.456683 -2.994074 2.343639 1.957544 -0.989783 -3.501163 -1.250403 -2.270083 0.190676 2.705064 -2.193538 -5.980127 -20.438143 1.021983 4.564656 -60.835192 -4.841557 9.585932 3.312863 -23.223011 6.979249 -8.738264 -10.989426 -17.752225 19.594151 1.513960 3.596958 60.499362 4.588953 10.996096 -7.709657 24.951598 -4.163787 8.384525 6.818550 -18.147245 
204.138977 59.145996 98.051971 -91.005593 0.416922 87.751657 -1.958056 0.321112 9.238563 3.539990 -8.466163 -8.100700 2.089692 7.476330 -9.871272 nan nan nan 0.081447 -2.950154 8.781223 1.612325 0.690003 -8.182661 8.503811 -2.651942 -3.187011 nan nan nan 0.681422 1.866779 5.941457 0.424445 -2.976855 2.162409 1.938904 -0.972068 -3.405048 -1.236785 -2.236245 0.073314 2.696996 -2.204399 -5.845228 -20.427510 0.975414 4.552171 -60.812220 -4.728751 9.632344 3.339600 -23.240198 6.967482 -8.588040 -11.055738 -17.938793 19.638607 1.562631 3.616221 60.417294 4.532233 10.971508 -7.631207 25.011828 -4.160134 8.253464 6.768786 -18.281807 
204.113953 59.114288 98.046776 -91.022908 0.425185 87.753126 -1.940948 0.333571 9.207787 3.488055 -8.461852 -8.005694 2.152091 7.482887 -10.004766 nan nan nan 0.060092 -2.937146 8.793318 1.608471 0.689568 -8.156375 8.507727 -2.688463 -3.350200 nan nan nan 0.723262 1.854517 5.992572 0.410619 -2.968392 2.064817 1.927314 -0.987539 -3.354368 -1.225903 -2.227944 0.025590 2.689743 -2.209742 -5.810312 -20.435661 0.905244 4.620810 -60.787387 -4.666240 9.636155 3.399009 -23.255079 6.937645 -8.476525 -11.163120 -18.115375 19.629879 1.589936 3.614952 60.378441 4.475401 10.971142 -7.573056 25.098380 -4.086963 8.144412 6.746539 -18.361343 
204.077942 59.085854 98.038124 -91.040937 0.479233 87.733807 -1.872118 0.361117 9.210621 3.452365 -8.452637 -7.945356 2.123270 7.457042 -9.989891 nan nan nan 0.100557 -2.952265 8.839487 1.574509 0.729676 -8.165187 8.550062 -2.690641 -3.293843 nan nan nan 0.771977 1.879299 6.030617 0.426061 -2.936736 2.025589 1.958152 -1.057965 -3.330728 -1.234949 -2.279908 0.039271 2.637415 -2.156120 -5.816347 -20.430887 0.834297 4.726233 -60.795597 -4.641192 9.625687 3.423248 -23.270385 7.003809 -8.368843 -11.323800 -18.327139 19.554534 1.564940 3.596436 60.359630 4.429125 10.992693 -7.511824 25.171329 -3.907625 8.041436 6.771032 -18.401405 
204.042816 59.071526 98.032814 -91.069549 0.503284 87.727656 -1.834677 0.379242 9.211532 3.422887 -8.454359 -7.909740 2.061530 7.439772 -9.956961 nan nan nan 0.122795 -2.954440 8.860768 1.575083 0.732337 -8.171212 8.538712 -2.623828 -3.182292 nan nan nan 0.747490 1.918486 6.036214 0.459482 -2.928334 2.016454 2.004120 -1.081475 -3.335433 -1.266161 -2.321557 0.088031 2.589327 -2.098910 -5.818533 -20.415444 0.791298 4.757810 -60.828739 -4.630881 9.614178 3.453537 -23.244569 7.021145 -8.375879 -11.346450 -18.412045 19.495342 1.546996 3.625823 60.383750 4.432260 10.956168 -7.535954 25.185861 -3.887777 8.047447 6.753129 -18.485652 
204.019882 59.063503 98.030739 -91.087713 0.495874 87.742089 -1.836560 0.404958 9.187327 3.379799 -8.467782 -7.846751 2.143271 7.419007 -10.006719 nan nan nan 0.117777 -2.930834 8.846416 1.562481 0.718622 -8.128471 8.348560 -2.732467 -3.408824 nan nan nan 0.708017 1.914472 6.020314 0.475489 -2.926430 2.008708 2.007126 -1.055357 -3.342389 -1.230597 -2.280310 0.104057 2.544821 -2.087220 -5.717745 -20.397046 0.791982 4.773663 -60.816109 -4.640591 9.593539 3.500948 -23.197199 6.998818 -8.473096 -11.465536 -18.528891 19.554480 1.535390 3.676600 60.346725 4.450592 10.923821 -7.545561 25.203990 -3.892731 8.099879 6.766054 -18.524693 
204.005890 59.039394 98.035446 -91.056049 0.486843 87.822063 -1.867936 0.400560 9.080066 3.359131 -8.487053 -7.778326 2.074173 7.418535 -10.027432 nan nan nan 0.110929 -2.934422 8.758459 1.534581 0.678300 -8.082687 8.034937 -2.852280 -3.665950 nan nan nan 0.744301 1.858903 5.898272 0.465614 -2.957616 2.030423 1.954754 -1.021143 -3.344871 -1.219727 -2.212322 0.159480 2.543383 -2.096720 -5.674948 -20.412809 0.765443 4.859088 -60.777597 -4.633555 9.586040 3.592749 -23.206581 6.874596 -8.557070 -11.553705 -18.657762 19.648925 1.573157 3.771977 60.295678 4.469058 10.895314 -7.611211 25.237622 -3.913168 8.162817 6.753764 -18.516584 
203.976044 59.010445 98.041206 -91.023617 0.465368 87.832742 -1.898123 0.411839 9.077558 3.341717 -8.532058 -7.750459 1.929547 7.378411 -10.058708 nan nan nan 0.061271 -2.930046 8.797807 1.543754 0.655474 -8.126317 8.037851 -2.840750 -3.684780 nan nan nan 0.740453 1.819089 5.825485 0.460934 -2.994512 2.073382 1.948120 -0.985167 -3.317740 -1.223706 -2.178980 0.173594 2.567337 -2.110172 -5.711698 -20.412851 0.753698 4.857720 -60.772123 -4.637899 9.593160 3.599199 -23.176390 6.730268 -8.507921 -11.543218 -18.663266 19.674440 1.572812 3.797450 60.256603 4.480317 10.875451 -7.613903 25.258869 -3.949012 8.158137 6.728098 -18.511068 
203.927170 58.988651 98.035721 -91.054576 0.455302 87.797388 -1.913381 0.445703 9.135731 3.306110 -8.486754 -7.700616 2.006432 7.422126 -10.155872 nan nan nan 0.010739 -2.941359 8.883063 1.589913 0.711933 -8.172930 8.216026 -2.737680 -3.501452 nan nan nan 0.704114 1.838227 5.829607 0.477481 -3.006603 2.098920 1.962409 -0.955722 -3.308224 -1.212991 -2.251151 0.206336 2.562559 -2.145280 -5.740955 -20.355013 0.764547 4.826981 -60.771567 -4.618692 9.627926 3.509570 -23.177396 6.930101 -8.566193 -11.502590 -18.488064 19.621372 1.543026 3.776774 60.277926 4.490802 10.850193 -7.585518 25.207559 -3.925129 8.159745 6.705048 -18.465139 
